<svg width="24" height="24" xmlns="http://www.w3.org/2000/svg" xml:space="preserve" version="1.1" enable-background="new 0 0 24 24">

 <g>
  <title>Layer 1</title>
  <g id="svg_1">
   <path id="svg_2" d="m22.9,6l-1.9,0l0,-1.9c0,-0.6 -0.5,-1.1 -1.1,-1.1l-1.9,0l0,-1.9c0,-0.6 -0.5,-1.1 -1.1,-1.1l-15.8,0c-0.6,0 -1.1,0.5 -1.1,1.1l0,15.8c0,0.6 0.5,1.1 1.1,1.1l1.9,0l0,1.9c0,0.6 0.5,1.1 1.1,1.1l1.9,0l0,1.9c0,0.6 0.5,1.1 1.1,1.1l15.8,0c0.6,0 1.1,-0.5 1.1,-1.1l0,-15.8c0,-0.6 -0.5,-1.1 -1.1,-1.1zm-19.9,-1.9l0,11.9l-1,0l0,-14l14,0l0,1l-11.9,0c-0.6,0 -1.1,0.5 -1.1,1.1zm3,3l0,11.9l-1,0l0,-14l14,0l0,1l-11.9,0c-0.6,0 -1.1,0.5 -1.1,1.1zm16,14.9l-14,0l0,-14l14,0l0,14z"/>
  </g>
  <path transform="rotate(45, 15.0261, 14.9683)" id="svg_3" d="m11.01543,12.95136l1.94476,-1.89868l2.06589,2.01692l2.06589,-2.01692l1.94478,1.89868l-2.06589,2.01694l2.06589,2.01694l-1.94478,1.8987l-2.06589,-2.01694l-2.06589,2.01694l-1.94476,-1.8987l2.06587,-2.01694l-2.06587,-2.01694z" fill="#000000"/>
 </g>
</svg>