<svg width="24" height="24" xmlns="http://www.w3.org/2000/svg" enable-background="new 0 0 24 24" version="1.1" xml:space="preserve">
 <g>
  <title>Layer 1</title>
  <g id="svg_1">
   <path d="m22.9,6l-1.9,0l0,-1.9c0,-0.6 -0.5,-1.1 -1.1,-1.1l-1.9,0l0,-1.9c0,-0.6 -0.5,-1.1 -1.1,-1.1l-15.8,0c-0.6,0 -1.1,0.5 -1.1,1.1l0,15.8c0,0.6 0.5,1.1 1.1,1.1l1.9,0l0,1.9c0,0.6 0.5,1.1 1.1,1.1l1.9,0l0,1.9c0,0.6 0.5,1.1 1.1,1.1l15.8,0c0.6,0 1.1,-0.5 1.1,-1.1l0,-15.8c0,-0.6 -0.5,-1.1 -1.1,-1.1zm-19.9,-1.9l0,11.9l-1,0l0,-14l14,0l0,1l-11.9,0c-0.6,0 -1.1,0.5 -1.1,1.1zm3,3l0,11.9l-1,0l0,-14l14,0l0,1l-11.9,0c-0.6,0 -1.1,0.5 -1.1,1.1zm16,14.9l-14,0l0,-14l14,0l0,14z" id="svg_2"/>
  </g>
  <path id="svg_13" d="m9.49157,10.04814l11.0137,0l0,1.91781l-11.0137,0l0,-1.91781z" fill="#000000"/>
  <path id="svg_15" d="m9.51775,13.88376l11.0137,0l0,1.91781l-11.0137,0l0,-1.91781z" fill="#000000"/>
  <path id="svg_16" d="m9.49157,17.71937l11.0137,0l0,1.91781l-11.0137,0l0,-1.91781z" fill="#000000"/>
  <path id="svg_17" d="m31.5395,16.19753l1.01059,0l0,0c0.13239,0 0.23971,0.1139 0.23971,0.2544c0,0.1405 -0.10732,0.2544 -0.23971,0.2544l-1.01059,0l0,0c-0.13239,0 -0.23971,-0.1139 -0.23971,-0.2544c0,-0.1405 0.10732,-0.2544 0.23971,-0.2544z" fill="#000000"/>
  <path id="svg_26" d="m10.77796,10.04505l2.83803,0l0,0c0.37179,0 0.67318,0.43095 0.67318,0.96254c0,0.5316 -0.30139,0.96254 -0.67318,0.96254l-2.83803,0l0,0c-0.37179,0 -0.67318,-0.43095 -0.67318,-0.96254c0,-0.5316 0.30139,-0.96254 0.67318,-0.96254z" fill="#000000"/>
 </g>

</svg>